<?xml version="1.0" encoding="UTF-8"?>
<svg width="25.955mm" height="9.2117mm" version="1.1" viewBox="0 0 25.955 9.2117" xmlns="http://www.w3.org/2000/svg"><g transform="translate(361.47 -305.25)"><g fill="#010409"><path d="m-350.81 312.15q0.0827 0.0258 0.16536 0.0362 0.0827 5e-3 0.16537 5e-3 0.2067 0 0.3979-0.0568 0.19121-0.0568 0.35657-0.1602 0.17053-0.10852 0.29972-0.25838 0.13436-0.15503 0.21705-0.34106l1.0335 1.0387q-0.19637 0.27906-0.45475 0.50126-0.25321 0.22221-0.55294 0.37724-0.29455 0.15503-0.62528 0.23255-0.32556 0.0827-0.67179 0.0827-0.58395 0-1.1007-0.21704-0.5116-0.21704-0.89917-0.60462-0.38241-0.38757-0.60462-0.91984-0.2222-0.53743-0.2222-1.1782 0-0.65629 0.2222-1.1989 0.22221-0.54261 0.60462-0.92501 0.38757-0.38241 0.89917-0.59428 0.51676-0.21187 1.1007-0.21187 0.34623 0 0.67696 0.0827t0.62528 0.23771q0.29972 0.15503 0.55811 0.38241 0.25838 0.2222 0.45475 0.50126zm0.72347-2.9094q-0.0982-0.0362-0.19637-0.0465-0.093-0.0103-0.19637-0.0103-0.28939 0-0.54778 0.10852-0.25321 0.10335-0.44441 0.29972-0.18604 0.19637-0.29456 0.47542-0.10852 0.27389-0.10852 0.62012 0 0.0775 5e-3 0.1757 0.0103 0.0982 0.0258 0.20154 0.0207 0.0982 0.0465 0.1912t0.0672 0.16537z"/><path d="m-345.29 312.15q0.0827 0.0258 0.16536 0.0362 0.0827 5e-3 0.16537 5e-3 0.2067 0 0.39791-0.0568 0.1912-0.0568 0.35656-0.1602 0.17054-0.10852 0.29973-0.25838 0.13436-0.15503 0.21704-0.34106l1.0335 1.0387q-0.19637 0.27906-0.45476 0.50126-0.25321 0.22221-0.55293 0.37724-0.29456 0.15503-0.62529 0.23255-0.32556 0.0827-0.67179 0.0827-0.58395 0-1.1007-0.21704-0.5116-0.21704-0.89917-0.60462-0.38241-0.38757-0.60461-0.91984-0.22221-0.53743-0.22221-1.1782 0-0.65629 0.22221-1.1989 0.2222-0.54261 0.60461-0.92501 0.38757-0.38241 0.89917-0.59428 0.51676-0.21187 1.1007-0.21187 0.34623 0 0.67696 0.0827t0.62528 0.23771q0.29973 0.15503 0.55811 0.38241 0.25838 0.2222 0.45475 0.50126zm0.72347-2.9094q-0.0982-0.0362-0.19637-0.0465-0.093-0.0103-0.19637-0.0103-0.28939 0-0.54777 0.10852-0.25322 0.10335-0.44442 0.29972-0.18604 0.19637-0.29456 0.47542-0.10852 0.27389-0.10852 0.62012 0 0.0775 5e-3 0.1757 0.0103 0.0982 0.0258 0.20154 0.0207 0.0982 0.0465 0.1912t0.0672 0.16537z"/><path d="m-340.51 313.51h-1.4211v-7.736h1.4211z"/><path d="m-337.64 313.51h-1.4108v-4.129h-0.6873v-1.4056h0.6873v-0.26355q0-0.5116 0.1912-0.96118 0.19637-0.44959 0.53227-0.78032 0.34107-0.33589 0.79065-0.5271 0.44959-0.19637 0.96118-0.19637h1.0594v1.4056h-1.0594q-0.22737 0-0.42374 0.0827-0.19121 0.0775-0.3359 0.2222-0.13953 0.13953-0.22221 0.3359-0.0827 0.1912-0.0827 0.41858v0.26355h1.7312v1.4056h-1.7312z"/></g><rect x="-361.47" y="306.9" width="7.5617" height="7.5617" rx="1.695" ry="1.8492" fill="#10b981" style="paint-order:stroke fill markers"/><path d="m-358.74 312.76a0.70183 0.70183 0 0 1-0.70184 0.70183 0.70183 0.70183 0 0 1-0.70183-0.70183 0.70183 0.70183 0 0 1 0.70183-0.70184 0.70183 0.70183 0 0 1 0.70184 0.70184zm3.4343-4.1221a0.70183 0.70183 0 0 1-0.70183 0.70184 0.70183 0.70183 0 0 1-0.70184-0.70184 0.70183 0.70183 0 0 1 0.70184-0.70183 0.70183 0.70183 0 0 1 0.70183 0.70183zm-3.12-0.71128c-0.2446 0-0.47369 0.0465-0.68729 0.13953-0.2136 0.0896-0.39963 0.2136-0.55811 0.37207-0.15847 0.15847-0.28422 0.34451-0.37723 0.55811-0.0896 0.21358-0.13436 0.44269-0.13436 0.68729 0 0.24461 0.0448 0.47371 0.13436 0.6873 0.093 0.21359 0.21876 0.40135 0.37723 0.56327 0.15848 0.15848 0.34451 0.28422 0.55811 0.37724 0.2136 0.093 0.44269 0.13953 0.68729 0.13953h1.4676c0.0965 0 0.17914 0.0155 0.24804 0.0465s0.10336 0.0965 0.10336 0.19638c0 0.0965-0.0345 0.17914-0.10336 0.24804-0.0689 0.0689-0.15158 0.10335-0.24804 0.10335h-1.4955c0.14727 0.20211 0.2372 0.44784 0.2372 0.71417 0 0.25534-0.0812 0.49374-0.21756 0.69143h1.4759c0.24115 0 0.46853-0.0448 0.68212-0.13435 0.2136-0.093 0.39964-0.21877 0.55811-0.37724 0.15848-0.16192 0.28422-0.34796 0.37724-0.55811 0.093-0.21359 0.13952-0.44269 0.13952-0.68729 0-0.24116-0.0465-0.46337-0.13952-0.66663-0.093-0.20326-0.21876-0.37724-0.37724-0.52193-0.15847-0.1447-0.34451-0.25666-0.55811-0.3359-0.21359-0.0827-0.44097-0.12402-0.68212-0.12402h-1.4676c-0.0965 0-0.17914-0.0345-0.24804-0.10336-0.0689-0.0723-0.10335-0.15846-0.10335-0.25838 0-0.0965 0.0344-0.17913 0.10335-0.24805 0.0689-0.0689 0.15158-0.10335 0.24804-0.10335h1.4123c-0.13815-0.19799-0.22066-0.43723-0.22066-0.69401 0-0.26486 0.089-0.50972 0.23513-0.71159z" fill="#fff" style="paint-order:stroke fill markers"/></g></svg>
