<?xml version="1.0" encoding="UTF-8"?>
<svg width="7.5617mm" height="7.5617mm" version="1.1" viewBox="0 0 7.5617 7.5617" xmlns="http://www.w3.org/2000/svg"><g transform="translate(-67.279 -196.46)"><rect x="67.279" y="196.46" width="7.5617" height="7.5617" rx="1.695" ry="1.8492" fill="#10b981" style="paint-order:stroke fill markers"/><path d="m70.012 202.32a0.70183 0.70183 0 0 1-0.70184 0.70183 0.70183 0.70183 0 0 1-0.70183-0.70183 0.70183 0.70183 0 0 1 0.70183-0.70184 0.70183 0.70183 0 0 1 0.70184 0.70184zm3.4343-4.1221a0.70183 0.70183 0 0 1-0.70183 0.70184 0.70183 0.70183 0 0 1-0.70183-0.70184 0.70183 0.70183 0 0 1 0.70183-0.70183 0.70183 0.70183 0 0 1 0.70183 0.70183zm-3.12-0.71128c-0.2446 0-0.4737 0.0465-0.6873 0.13953-0.2136 0.0896-0.39963 0.2136-0.55811 0.37207s-0.28422 0.34451-0.37724 0.55811c-0.08957 0.21358-0.13436 0.44269-0.13436 0.68729 0 0.24461 0.04479 0.47371 0.13436 0.6873 0.09302 0.21359 0.21876 0.40135 0.37724 0.56327 0.15848 0.15848 0.34451 0.28422 0.55811 0.37724 0.2136 0.093 0.44269 0.13953 0.6873 0.13953h1.4676c0.09646 0 0.17914 0.0155 0.24805 0.0465 0.0689 0.031 0.10335 0.0965 0.10335 0.19638 0 0.0965-0.03445 0.17914-0.10335 0.24804-0.0689 0.0689-0.15158 0.10335-0.24805 0.10335h-1.4955c0.14727 0.20211 0.2372 0.44784 0.2372 0.71417 0 0.25534-0.08116 0.49374-0.21756 0.69143h1.4759c0.24116 0 0.46853-0.0448 0.68213-0.13435 0.21359-0.093 0.39963-0.21877 0.55811-0.37724 0.15848-0.16192 0.28422-0.34796 0.37724-0.55811 0.09302-0.21359 0.13953-0.44269 0.13953-0.68729 0-0.24116-0.04651-0.46337-0.13953-0.66663-0.09302-0.20326-0.21876-0.37724-0.37724-0.52193-0.15848-0.1447-0.34451-0.25666-0.55811-0.3359-0.2136-0.0827-0.44097-0.12402-0.68213-0.12402h-1.4676c-0.09647 0-0.17915-0.0345-0.24805-0.10336-0.0689-0.0723-0.10335-0.15846-0.10335-0.25838 0-0.0965 0.03445-0.17913 0.10335-0.24805 0.0689-0.0689 0.15158-0.10335 0.24805-0.10335h1.4123c-0.13815-0.19799-0.22066-0.43723-0.22066-0.69401 0-0.26486 0.08897-0.50972 0.23513-0.71159z" fill="#fff" style="paint-order:stroke fill markers"/></g></svg>
